<svg width="128" height="20" viewBox="0 0 128 20" fill="none" xmlns="http://www.w3.org/2000/svg">
<path d="M127.364 19.1793H124.189L116.931 10.5602V19.1793H114.396V0.500244H116.931V9.75971L124.109 0.500244H127.124L119.679 10.0799L127.364 19.1793Z" fill="#FDFDFD"/>
<path d="M110.886 2.9552H103.175V8.45217H109.125V10.8804H103.175V16.7243H110.886V19.1793H100.64V0.500244H110.886V2.9552Z" fill="#FDFDFD"/>
<path d="M93.6682 0.500244H96.2032V19.1793H93.6682V10.9872H84.4354V19.1793H81.9004V0.500244H84.4354V8.53223H93.6682V0.500244Z" fill="#FDFDFD"/>
<path d="M74.1633 19.4994C68.3462 19.4994 64.6104 15.0164 64.6104 9.83966C64.6104 4.6629 68.3462 0.179932 74.1633 0.179932C75.8711 0.179932 77.3121 0.526827 78.5663 1.16725V4.02247C77.4989 3.16858 76.0846 2.63489 74.19 2.63489C70.0006 2.63489 67.1987 5.99711 67.1987 9.83966C67.1987 13.6822 70.0006 17.0444 74.19 17.0444C76.0846 17.0444 77.4989 16.5107 78.5663 15.6568V18.5121C77.3121 19.1525 75.8711 19.4994 74.1633 19.4994Z" fill="#FDFDFD"/>
<path d="M49.4598 12.028H62.4877V14.5096H46.9248V0H49.4598V12.028Z" fill="#FDFDFD"/>
<path d="M43.535 17.0005H62.0035V19.4821H41V0.803101H43.535V17.0005Z" fill="#FDFDFD"/>
<path d="M38.8073 2.9552H31.0956V8.45217H37.0462V10.8804H31.0956V16.7243H38.8073V19.1793H28.5605V0.500244H38.8073V2.9552Z" fill="#FDFDFD"/>
<path d="M24.3895 0.473633L27.138 0.500317L17.9586 19.6063H17.5583L13.5823 11.1474L9.60636 19.6063H9.17941L0 0.500317L2.77517 0.473633L9.41957 14.7764L12.2748 8.69241L8.45893 0.500317L11.1007 0.473633L13.5823 6.15739L16.064 0.473633L18.7324 0.500317L14.8899 8.71909L17.7451 14.8031L24.3895 0.473633Z" fill="#FDFDFD"/>
</svg>
